{
	"nodes":[{
		"name":"Cube",
		"mesh":0
	}],
	"scenes":[{
		"nodes":[0]
	}],
	"asset":{
		"version":"2.0",
		"generator":"Created using the official Cinema 4D glTF Exporter 1.000x284978"
	},
	"meshes":[{
		"name":"Cube",
		"primitives":[{
			"attributes":{
				"POSITION":1,
				"NORMAL":2,
				"TEXCOORD_0":3
			},
			"indices":0
		}]
	}],
	"accessors":[{
		"bufferView":0,
		"type":"SCALAR",
		"componentType":5123,
		"count":612,
		"byteOffset":0,
		"min":[0],
		"max":[279]
	},
	{
		"bufferView":1,
		"type":"VEC3",
		"componentType":5126,
		"count":280,
		"byteOffset":0,
		"min":[-1635.0,
		-1635.0,
		-525.0],
		"max":[1635.0,
		1635.0,
		525.0]
	},
	{
		"bufferView":1,
		"type":"VEC3",
		"componentType":5126,
		"count":280,
		"byteOffset":12,
		"min":[-1.0,
		-1.0,
		-1.0],
		"max":[1.0,
		1.0,
		1.0]
	},
	{
		"bufferView":1,
		"type":"VEC2",
		"componentType":5126,
		"count":280,
		"byteOffset":24,
		"min":[0.0,
		0.0],
		"max":[1.0,
		1.0]
	}],
	"bufferViews":[{
		"buffer":0,
		"byteOffset":0,
		"byteLength":1224,
		"target":34963
	},
	{
		"buffer":0,
		"byteOffset":1224,
		"byteLength":8960,
		"target":34962,
		"byteStride":32
	}],
	"buffers":[{
		"uri":"data:application/octet-stream;base64,",
		"byteLength":10184
	}]
}