{
	"asset":{
		"generator":"Created using the official Cinema 4D glTF Exporter 1.000x284978",
		"version":"2.0"
	},
	"textures":[{
		"sampler":0,
		"source":0
	}],
	"scenes":[{
		"nodes":[0]
	}],
	"nodes":[{
		"scale":[1.0,
		1.0,
		1.0],
		"name":"book.1",
		"translation":[-115.45759582519531,
		50.54463195800781,
		-15.043609619140625],
		"rotation":[0.0,
		-0.04269244521856308,
		0.0,
		0.9990882873535156],
		"children":[1,
		2,
		3,
		4,
		5,
		7,
		8,
		9]
	},
	{
		"scale":[1.0,
		1.0,
		1.0],
		"name":"Plane.4",
		"translation":[56.257720947265628,
		5.942596912384033,
		0.07513830810785294],
		"rotation":[0.0,
		0.0,
		0.947668731212616,
		-0.3192552924156189],
		"mesh":0
	},
	{
		"scale":[1.0,
		1.0,
		1.0],
		"name":"Plane.3",
		"translation":[-39.83564758300781,
		5.942596912384033,
		0.07513830810785294],
		"rotation":[0.0,
		0.0,
		0.323621928691864,
		-0.9461864829063416],
		"mesh":1
	},
	{
		"scale":[1.0,
		1.0,
		1.0],
		"name":"Plane.2",
		"translation":[-21.577836990356447,
		35.77745056152344,
		-0.5259681940078735],
		"rotation":[0.0,
		0.0,
		0.544467031955719,
		-0.8387822508811951],
		"mesh":2
	},
	{
		"scale":[1.0,
		1.0,
		1.0],
		"name":"Plane.1",
		"translation":[-20.010223388671876,
		27.484254837036134,
		0.07513830810785294],
		"rotation":[0.0,
		0.0,
		0.5263401865959168,
		-0.8502740859985352],
		"mesh":3
	},
	{
		"scale":[1.0,
		1.0,
		1.0],
		"name":"Plane",
		"translation":[-2.6204941272735597,
		39.62296676635742,
		0.07513830810785294],
		"rotation":[0.0,
		0.0,
		0.6427876353263855,
		-0.7660444378852844],
		"children":[6]
	},
	{
		"name":"Plane",
		"mesh":4
	},
	{
		"scale":[1.0,
		1.0,
		1.0],
		"name":"Cube.13",
		"translation":[-61.73759841918945,
		-34.93547058105469,
		0.07513830810785294],
		"rotation":[0.0,
		-1.0,
		0.0,
		-6.123234262925839e-17],
		"mesh":5
	},
	{
		"scale":[1.0,
		1.0,
		1.0],
		"name":"Cube.12",
		"translation":[80.51679229736328,
		-32.96940231323242,
		0.07513830810785294],
		"rotation":[0.0,
		0.0,
		0.0,
		-1.0],
		"mesh":6
	},
	{
		"scale":[1.0,
		1.0,
		1.0],
		"name":"Cube.11",
		"translation":[9.007290840148926,
		-46.864994049072269,
		0.07513830810785294],
		"rotation":[0.0,
		0.0,
		1.0,
		-6.123234262925839e-17],
		"mesh":7
	}],
	"samplers":[{
		"magFilter":9729,
		"minFilter":9729,
		"wrapS":10497,
		"wrapT":10497
	}],
	"meshes":[{
		"name":"Plane.4",
		"primitives":[{
			"attributes":{
				"POSITION":1,
				"NORMAL":2,
				"TEXCOORD_0":3
			},
			"indices":0,
			"material":0
		}]
	},
	{
		"name":"Plane.3",
		"primitives":[{
			"attributes":{
				"POSITION":5,
				"NORMAL":6,
				"TEXCOORD_0":7
			},
			"indices":4,
			"material":0
		}]
	},
	{
		"name":"Plane.2",
		"primitives":[{
			"attributes":{
				"POSITION":9,
				"NORMAL":10,
				"TEXCOORD_0":11
			},
			"indices":8,
			"material":0
		}]
	},
	{
		"name":"Plane.1",
		"primitives":[{
			"attributes":{
				"POSITION":13,
				"NORMAL":14,
				"TEXCOORD_0":15
			},
			"indices":12,
			"material":0
		}]
	},
	{
		"name":"Plane",
		"primitives":[{
			"attributes":{
				"POSITION":17,
				"NORMAL":18,
				"TEXCOORD_0":19
			},
			"indices":16,
			"material":0
		}]
	},
	{
		"name":"Cube.13",
		"primitives":[{
			"attributes":{
				"POSITION":21,
				"NORMAL":22,
				"TEXCOORD_0":23
			},
			"indices":20,
			"material":0
		}]
	},
	{
		"name":"Cube.12",
		"primitives":[{
			"attributes":{
				"POSITION":25,
				"NORMAL":26,
				"TEXCOORD_0":27
			},
			"indices":24,
			"material":0
		}]
	},
	{
		"name":"Cube.11",
		"primitives":[{
			"attributes":{
				"POSITION":29,
				"NORMAL":30,
				"TEXCOORD_0":31
			},
			"indices":28,
			"material":0
		}]
	}],
	"accessors":[{
		"bufferView":0,
		"type":"SCALAR",
		"componentType":5123,
		"count":54,
		"byteOffset":0,
		"min":[0],
		"max":[19]
	},
	{
		"bufferView":1,
		"type":"VEC3",
		"componentType":5126,
		"count":20,
		"byteOffset":0,
		"min":[-83.28056335449219,
		-35.01742935180664,
		-81.00946807861328],
		"max":[60.4801025390625,
		0.15224966406822205,
		81.00946807861328]
	},
	{
		"bufferView":1,
		"type":"VEC3",
		"componentType":5126,
		"count":20,
		"byteOffset":12,
		"min":[-0.47502437233924868,
		0.8799726366996765,
		0.0],
		"max":[0.00891209114342928,
		0.9999603033065796,
		0.0]
	},
	{
		"bufferView":1,
		"type":"VEC2",
		"componentType":5126,
		"count":20,
		"byteOffset":24,
		"min":[0.4987412691116333,
		0.77364182472229],
		"max":[0.7412258386611939,
		0.9980506896972656]
	},
	{
		"bufferView":2,
		"type":"SCALAR",
		"componentType":5123,
		"count":54,
		"byteOffset":0,
		"min":[0],
		"max":[19]
	},
	{
		"bufferView":3,
		"type":"VEC3",
		"componentType":5126,
		"count":20,
		"byteOffset":0,
		"min":[-83.28056335449219,
		-35.01742935180664,
		-81.00946807861328],
		"max":[60.4801025390625,
		0.15224966406822205,
		81.00946807861328]
	},
	{
		"bufferView":3,
		"type":"VEC3",
		"componentType":5126,
		"count":20,
		"byteOffset":12,
		"min":[-0.47502437233924868,
		0.8799726366996765,
		-1.3798318912005263e-17],
		"max":[0.00891209114342928,
		0.9999603033065796,
		0.0]
	},
	{
		"bufferView":3,
		"type":"VEC2",
		"componentType":5126,
		"count":20,
		"byteOffset":24,
		"min":[0.7621636390686035,
		0.27292829751968386],
		"max":[0.9888439178466797,
		0.5178673267364502]
	},
	{
		"bufferView":4,
		"type":"SCALAR",
		"componentType":5123,
		"count":54,
		"byteOffset":0,
		"min":[0],
		"max":[19]
	},
	{
		"bufferView":5,
		"type":"VEC3",
		"componentType":5126,
		"count":20,
		"byteOffset":0,
		"min":[-85.54888916015625,
		-36.35221481323242,
		-81.00946807861328],
		"max":[62.68740463256836,
		0.18951551616191865,
		81.00946807861328]
	},
	{
		"bufferView":5,
		"type":"VEC3",
		"componentType":5126,
		"count":20,
		"byteOffset":12,
		"min":[-0.48313108086586,
		0.8755480647087097,
		-1.3147367474595432e-17],
		"max":[0.011085756123065949,
		0.9999696016311646,
		0.0]
	},
	{
		"bufferView":5,
		"type":"VEC2",
		"componentType":5126,
		"count":20,
		"byteOffset":24,
		"min":[0.743964672088623,
		0.524779200553894],
		"max":[0.977958083152771,
		0.7697181701660156]
	},
	{
		"bufferView":6,
		"type":"SCALAR",
		"componentType":5123,
		"count":54,
		"byteOffset":0,
		"min":[0],
		"max":[19]
	},
	{
		"bufferView":7,
		"type":"VEC3",
		"componentType":5126,
		"count":20,
		"byteOffset":0,
		"min":[-87.79991149902344,
		-37.70851516723633,
		-81.00946807861328],
		"max":[64.89470672607422,
		0.20909559726715089,
		81.00946807861328]
	},
	{
		"bufferView":7,
		"type":"VEC3",
		"componentType":5126,
		"count":20,
		"byteOffset":12,
		"min":[-0.4911966621875763,
		0.8710486888885498,
		-1.2980046207468818e-17],
		"max":[0.01222451776266098,
		0.9999887943267822,
		0.0]
	},
	{
		"bufferView":7,
		"type":"VEC2",
		"componentType":5126,
		"count":20,
		"byteOffset":24,
		"min":[0.253517746925354,
		0.600361704826355],
		"max":[0.4948176145553589,
		0.8453006744384766]
	},
	{
		"bufferView":8,
		"type":"SCALAR",
		"componentType":5123,
		"count":54,
		"byteOffset":0,
		"min":[0],
		"max":[19]
	},
	{
		"bufferView":9,
		"type":"VEC3",
		"componentType":5126,
		"count":20,
		"byteOffset":0,
		"min":[-87.79991149902344,
		-37.70851516723633,
		-81.00946807861328],
		"max":[64.89470672607422,
		0.20909559726715089,
		81.00946807861328]
	},
	{
		"bufferView":9,
		"type":"VEC3",
		"componentType":5126,
		"count":20,
		"byteOffset":12,
		"min":[-0.4911966621875763,
		0.8710486888885498,
		0.0],
		"max":[0.01222451776266098,
		0.9999887943267822,
		0.0]
	},
	{
		"bufferView":9,
		"type":"VEC2",
		"componentType":5126,
		"count":20,
		"byteOffset":24,
		"min":[0.4987412691116333,
		0.524779200553894],
		"max":[0.7400411367416382,
		0.7697181701660156]
	},
	{
		"bufferView":10,
		"type":"SCALAR",
		"componentType":5123,
		"count":108,
		"byteOffset":0,
		"min":[0],
		"max":[47]
	},
	{
		"bufferView":11,
		"type":"VEC3",
		"componentType":5126,
		"count":48,
		"byteOffset":0,
		"min":[-70.96456909179688,
		-12.417828559875489,
		-82.4598388671875],
		"max":[70.96456909179688,
		8.080443382263184,
		82.4598388671875]
	},
	{
		"bufferView":11,
		"type":"VEC3",
		"componentType":5126,
		"count":48,
		"byteOffset":12,
		"min":[-1.0,
		-1.0,
		-1.0],
		"max":[1.0,
		1.0,
		1.0]
	},
	{
		"bufferView":11,
		"type":"VEC2",
		"componentType":5126,
		"count":48,
		"byteOffset":24,
		"min":[0.0006539385649375618,
		0.27292829751968386],
		"max":[0.4748750925064087,
		0.5964380502700806]
	},
	{
		"bufferView":12,
		"type":"SCALAR",
		"componentType":5123,
		"count":108,
		"byteOffset":0,
		"min":[0],
		"max":[47]
	},
	{
		"bufferView":13,
		"type":"VEC3",
		"componentType":5126,
		"count":48,
		"byteOffset":0,
		"min":[-70.96456909179688,
		-15.809320449829102,
		-82.4598388671875],
		"max":[70.96456909179688,
		10.287331581115723,
		82.4598388671875]
	},
	{
		"bufferView":13,
		"type":"VEC3",
		"componentType":5126,
		"count":48,
		"byteOffset":12,
		"min":[-1.0,
		-1.0,
		-1.0],
		"max":[1.0,
		1.0,
		1.0]
	},
	{
		"bufferView":13,
		"type":"VEC2",
		"componentType":5126,
		"count":48,
		"byteOffset":24,
		"min":[0.0006539385649375618,
		0.27292829751968386],
		"max":[0.7582401037216187,
		0.883613109588623]
	},
	{
		"bufferView":14,
		"type":"SCALAR",
		"componentType":5123,
		"count":228,
		"byteOffset":0,
		"min":[0],
		"max":[89]
	},
	{
		"bufferView":15,
		"type":"VEC3",
		"componentType":5126,
		"count":90,
		"byteOffset":0,
		"min":[-157.54981994628907,
		-3.775766611099243,
		-88.2921142578125],
		"max":[157.54981994628907,
		8.318077087402344,
		88.2921142578125]
	},
	{
		"bufferView":15,
		"type":"VEC3",
		"componentType":5126,
		"count":90,
		"byteOffset":12,
		"min":[-1.0,
		-1.0,
		-1.0],
		"max":[1.0,
		1.0,
		1.0]
	},
	{
		"bufferView":15,
		"type":"VEC2",
		"componentType":5126,
		"count":90,
		"byteOffset":24,
		"min":[0.0006539385649375618,
		0.0006539385067299008],
		"max":[0.9203107953071594,
		0.9142930507659912]
	}],
	"bufferViews":[{
		"buffer":0,
		"byteOffset":0,
		"byteLength":108,
		"target":34963
	},
	{
		"buffer":0,
		"byteOffset":108,
		"byteLength":640,
		"target":34962,
		"byteStride":32
	},
	{
		"buffer":1,
		"byteOffset":0,
		"byteLength":108,
		"target":34963
	},
	{
		"buffer":1,
		"byteOffset":108,
		"byteLength":640,
		"target":34962,
		"byteStride":32
	},
	{
		"buffer":2,
		"byteOffset":0,
		"byteLength":108,
		"target":34963
	},
	{
		"buffer":2,
		"byteOffset":108,
		"byteLength":640,
		"target":34962,
		"byteStride":32
	},
	{
		"buffer":3,
		"byteOffset":0,
		"byteLength":108,
		"target":34963
	},
	{
		"buffer":3,
		"byteOffset":108,
		"byteLength":640,
		"target":34962,
		"byteStride":32
	},
	{
		"buffer":4,
		"byteOffset":0,
		"byteLength":108,
		"target":34963
	},
	{
		"buffer":4,
		"byteOffset":108,
		"byteLength":640,
		"target":34962,
		"byteStride":32
	},
	{
		"buffer":5,
		"byteOffset":0,
		"byteLength":216,
		"target":34963
	},
	{
		"buffer":5,
		"byteOffset":216,
		"byteLength":1536,
		"target":34962,
		"byteStride":32
	},
	{
		"buffer":6,
		"byteOffset":0,
		"byteLength":216,
		"target":34963
	},
	{
		"buffer":6,
		"byteOffset":216,
		"byteLength":1536,
		"target":34962,
		"byteStride":32
	},
	{
		"buffer":7,
		"byteOffset":0,
		"byteLength":456,
		"target":34963
	},
	{
		"buffer":7,
		"byteOffset":456,
		"byteLength":2880,
		"target":34962,
		"byteStride":32
	}],
	"buffers":[{
		"uri":"data:application/octet-stream;base64,",
		"byteLength":748
	},
	{
		"uri":"data:application/octet-stream;base64,",
		"byteLength":748
	},
	{
		"uri":"data:application/octet-stream;base64,",
		"byteLength":748
	},
	{
		"uri":"data:application/octet-stream;base64,",
		"byteLength":748
	},
	{
		"uri":"data:application/octet-stream;base64,",
		"byteLength":748
	},
	{
		"uri":"data:application/octet-stream;base64,",
		"byteLength":1752
	},
	{
		"uri":"data:application/octet-stream;base64,",
		"byteLength":1752
	},
	{
		"uri":"data:application/octet-stream;base64,",
		"byteLength":3336
	}],
	"images":[{
		"uri":"data:image/jpeg;base64,"
	}],
	"materials":[{
		"pbrMetallicRoughness":{
			"baseColorFactor":[1.0,
			1.0,
			1.0,
			1.0],
			"metallicFactor":0.0,
			"roughnessFactor":0.5
		},
		"emissiveTexture":{
			"index":0
		},
		"emissiveFactor":[1.0,
		1.0,
		1.0],
		"alphaMode":"OPAQUE",
		"doubleSided":true,
		"name":"Cube"
	}]
}