{
	"nodes":[{
		"name":"Null.1",
		"children":[1,
		2,
		3,
		4],
		"translation":[49.60916519165039,
		83.48383331298828,
		70.33036804199219],
		"rotation":[-6.063265001188256e-9,
		-0.5,
		-3.5006277876448168e-9,
		0.8660253882408142],
		"scale":[1.0,
		1.0,
		1.0]
	},
	{
		"name":"Cylinder.3",
		"translation":[-45.410926818847659,
		33.29868698120117,
		13.963306427001954],
		"rotation":[0.0,
		-2.7755575615628916e-17,
		0.0,
		-1.0],
		"scale":[1.0,
		1.0,
		1.0],
		"mesh":0
	},
	{
		"name":"Cylinder.2",
		"translation":[46.622047424316409,
		30.098875045776368,
		13.963306427001954],
		"rotation":[0.0,
		-2.7755575615628916e-17,
		0.0,
		-1.0],
		"scale":[1.0,
		1.0,
		1.0],
		"mesh":1
	},
	{
		"name":"Cylinder.1",
		"translation":[0.1325492262840271,
		-31.698781967163087,
		-41.88991928100586],
		"rotation":[0.7071067690849304,
		0.0,
		0.0,
		-0.7071067690849304],
		"scale":[1.0,
		1.0,
		1.0],
		"mesh":2
	},
	{
		"name":"Cube.1",
		"translation":[-1.3436676263809205,
		-31.698781967163087,
		13.963306427001954],
		"rotation":[0.0,
		-2.7755575615628916e-17,
		0.0,
		-1.0],
		"scale":[1.0,
		1.0,
		1.0],
		"mesh":3
	}],
	"asset":{
		"generator":"Created using the official Cinema 4D glTF Exporter 1.000x284978",
		"version":"2.0"
	},
	"textures":[{
		"sampler":0,
		"source":0
	}],
	"scenes":[{
		"nodes":[0]
	}],
	"samplers":[{
		"magFilter":9729,
		"minFilter":9729,
		"wrapS":10497,
		"wrapT":10497
	}],
	"meshes":[{
		"name":"Cylinder.3",
		"primitives":[{
			"attributes":{
				"POSITION":1,
				"NORMAL":2,
				"TEXCOORD_0":3
			},
			"indices":0,
			"material":0
		}]
	},
	{
		"name":"Cylinder.2",
		"primitives":[{
			"attributes":{
				"POSITION":5,
				"NORMAL":6,
				"TEXCOORD_0":7
			},
			"indices":4,
			"material":0
		}]
	},
	{
		"name":"Cylinder.1",
		"primitives":[{
			"attributes":{
				"POSITION":9,
				"NORMAL":10,
				"TEXCOORD_0":11
			},
			"indices":8,
			"material":0
		}]
	},
	{
		"name":"Cube.1",
		"primitives":[{
			"attributes":{
				"POSITION":13,
				"NORMAL":14,
				"TEXCOORD_0":15
			},
			"indices":12,
			"material":0
		}]
	}],
	"accessors":[{
		"bufferView":0,
		"type":"SCALAR",
		"componentType":5123,
		"count":780,
		"byteOffset":0,
		"min":[0],
		"max":[188]
	},
	{
		"bufferView":1,
		"type":"VEC3",
		"componentType":5126,
		"count":189,
		"byteOffset":0,
		"min":[-16.267196655273439,
		-10.166997909545899,
		-16.148590087890626],
		"max":[16.267196655273439,
		10.166997909545899,
		16.148590087890626]
	},
	{
		"bufferView":1,
		"type":"VEC3",
		"componentType":5126,
		"count":189,
		"byteOffset":12,
		"min":[-0.9991819262504578,
		-1.0,
		-0.9967714548110962],
		"max":[0.9991819262504578,
		1.0,
		0.9967714548110962]
	},
	{
		"bufferView":1,
		"type":"VEC2",
		"componentType":5126,
		"count":189,
		"byteOffset":24,
		"min":[0.7924354672431946,
		0.27061158418655398],
		"max":[0.9980506896972656,
		0.8095486164093018]
	},
	{
		"bufferView":2,
		"type":"SCALAR",
		"componentType":5123,
		"count":1512,
		"byteOffset":0,
		"min":[0],
		"max":[347]
	},
	{
		"bufferView":3,
		"type":"VEC3",
		"componentType":5126,
		"count":348,
		"byteOffset":0,
		"min":[-13.94331169128418,
		-5.2287421226501469,
		-13.94331169128418],
		"max":[13.94331169128418,
		7.419003963470459,
		13.94331169128418]
	},
	{
		"bufferView":3,
		"type":"VEC3",
		"componentType":5126,
		"count":348,
		"byteOffset":12,
		"min":[-0.9992954134941101,
		-1.0,
		-0.9992954134941101],
		"max":[0.9992954134941101,
		1.0,
		0.9992954134941101]
	},
	{
		"bufferView":3,
		"type":"VEC2",
		"componentType":5126,
		"count":348,
		"byteOffset":24,
		"min":[0.5894414782524109,
		0.4642677903175354],
		"max":[0.993685245513916,
		0.8748838901519775]
	},
	{
		"bufferView":4,
		"type":"SCALAR",
		"componentType":5123,
		"count":14880,
		"byteOffset":0,
		"min":[0],
		"max":[3246]
	},
	{
		"bufferView":5,
		"type":"VEC3",
		"componentType":5126,
		"count":3247,
		"byteOffset":0,
		"min":[-34.63623809814453,
		-24.400794982910158,
		-34.770179748535159],
		"max":[34.81486511230469,
		24.400794982910158,
		34.770179748535159]
	},
	{
		"bufferView":5,
		"type":"VEC3",
		"componentType":5126,
		"count":3247,
		"byteOffset":12,
		"min":[-0.9994260668754578,
		-1.0,
		-0.999859094619751],
		"max":[0.9994260668754578,
		1.0,
		0.999859094619751]
	},
	{
		"bufferView":5,
		"type":"VEC2",
		"componentType":5126,
		"count":3247,
		"byteOffset":24,
		"min":[0.0006511106039397419,
		0.0006511105457320809],
		"max":[0.9065921902656555,
		0.9548897743225098]
	},
	{
		"bufferView":6,
		"type":"SCALAR",
		"componentType":5123,
		"count":1860,
		"byteOffset":0,
		"min":[0],
		"max":[361]
	},
	{
		"bufferView":7,
		"type":"VEC3",
		"componentType":5126,
		"count":362,
		"byteOffset":0,
		"min":[-92.98338317871094,
		-58.09713363647461,
		-44.22468948364258],
		"max":[92.98338317871094,
		58.09713363647461,
		44.22468948364258]
	},
	{
		"bufferView":7,
		"type":"VEC3",
		"componentType":5126,
		"count":362,
		"byteOffset":12,
		"min":[-0.9874271750450134,
		-1.0,
		-0.9882335066795349],
		"max":[0.9882335662841797,
		1.0,
		0.9882335066795349]
	},
	{
		"bufferView":7,
		"type":"VEC2",
		"componentType":5126,
		"count":362,
		"byteOffset":24,
		"min":[0.0006511106039397419,
		0.0006511105457320809],
		"max":[0.979023814201355,
		0.8748838901519775]
	}],
	"bufferViews":[{
		"buffer":0,
		"byteOffset":0,
		"byteLength":1560,
		"target":34963
	},
	{
		"buffer":0,
		"byteOffset":1560,
		"byteLength":6048,
		"target":34962,
		"byteStride":32
	},
	{
		"buffer":1,
		"byteOffset":0,
		"byteLength":3024,
		"target":34963
	},
	{
		"buffer":1,
		"byteOffset":3024,
		"byteLength":11136,
		"target":34962,
		"byteStride":32
	},
	{
		"buffer":2,
		"byteOffset":0,
		"byteLength":29760,
		"target":34963
	},
	{
		"buffer":2,
		"byteOffset":29760,
		"byteLength":103904,
		"target":34962,
		"byteStride":32
	},
	{
		"buffer":3,
		"byteOffset":0,
		"byteLength":3720,
		"target":34963
	},
	{
		"buffer":3,
		"byteOffset":3720,
		"byteLength":11584,
		"target":34962,
		"byteStride":32
	}],
	"buffers":[{
		"uri":"data:application/octet-stream;base64,",
		"byteLength":7608
	},
	{
		"uri":"data:application/octet-stream;base64,",
		"byteLength":14160
	},
	{
		"uri":"data:application/octet-stream;base64,",
		"byteLength":133664
	},
	{
		"uri":"data:application/octet-stream;base64,",
		"byteLength":15304
	}],
	"images":[{
		"uri":"data:image/jpeg;base64,"
	}],
	"materials":[{
		"pbrMetallicRoughness":{
			"baseColorFactor":[1.0,
			1.0,
			1.0,
			1.0],
			"metallicFactor":0.0,
			"roughnessFactor":0.5
		},
		"emissiveTexture":{
			"index":0
		},
		"name":"Cube",
		"emissiveFactor":[1.0,
		1.0,
		1.0],
		"alphaMode":"OPAQUE",
		"doubleSided":true
	}]
}