{
	"asset":{
		"version":"2.0",
		"generator":"Maxon Cinema 4D 25.120 (#200000219)"
	},
	"scenes":[{
		"nodes":[0,
		1]
	}],
	"nodes":[{
		"name":"canvas",
		"mesh":0,
		"translation":[2.4822323322296144,
		3.1940290927886965,
		0.552909255027771],
		"rotation":[-0.17298738658428193,
		-0.0858316496014595,
		0.015134436078369618,
		-0.981060266494751],
		"scale":[1.0,
		1.0,
		1.0]
	},
	{
		"name":"easel",
		"translation":[0.40073204040527346,
		3.102998733520508,
		1.1738961935043336],
		"rotation":[0.5714741945266724,
		-0.07006920874118805,
		-0.04906298965215683,
		-0.8161497116088867],
		"scale":[1.0,
		1.0,
		1.0],
		"children":[2,
		3]
	},
	{
		"name":"Null",
		"translation":[-0.419342964887619,
		-0.07506910711526871,
		-0.017214972525835038],
		"rotation":[0.0,
		-3.469446951953614e-18,
		0.0,
		-1.0],
		"scale":[1.0,
		1.0,
		1.0],
		"children":[4,
		5,
		6,
		7,
		8]
	},
	{
		"name":"Cube.3",
		"mesh":1,
		"translation":[2.116469621658325,
		0.09511119872331619,
		1.7300456762313843],
		"rotation":[0.0,
		-2.7755575615628916e-17,
		0.0,
		-1.0],
		"scale":[1.0,
		1.0,
		1.0]
	},
	{
		"name":"Cube.4",
		"mesh":2,
		"translation":[2.5033693313598635,
		0.2601069509983063,
		-1.9700289964675904],
		"rotation":[0.0,
		-1.0408340855860843e-17,
		0.0,
		-1.0],
		"scale":[1.0,
		1.0,
		1.0]
	},
	{
		"name":"Cube.2",
		"mesh":3,
		"translation":[1.9656827449798585,
		0.10069851577281952,
		0.03577222675085068],
		"rotation":[1.0408340855860843e-17,
		-6.373270475704316e-34,
		1.0,
		-6.123234262925839e-17],
		"scale":[1.0,
		1.0,
		1.0]
	},
	{
		"name":"Boole.1",
		"translation":[-10.106635093688965,
		-0.5943682193756104,
		0.2980177402496338],
		"rotation":[0.29703256487846377,
		0.0,
		0.0,
		-0.9548673629760742],
		"scale":[1.0,
		1.0,
		1.0],
		"children":[9,
		10]
	},
	{
		"name":"Cube.1",
		"mesh":4,
		"translation":[3.0978546142578127,
		0.07825376838445664,
		0.043941449373960498],
		"rotation":[0.0,
		-1.0408340855860843e-17,
		0.0,
		-1.0],
		"scale":[1.0,
		1.0,
		1.0]
	},
	{
		"name":"Cylinder",
		"mesh":5,
		"translation":[2.5397286415100099,
		0.15530897676944734,
		1.5922975540161133],
		"rotation":[4.90653884941496e-18,
		-4.90653884941496e-18,
		0.7071067690849304,
		-0.7071067690849304],
		"scale":[1.0,
		1.0,
		1.0]
	},
	{
		"name":"Boole",
		"children":[11,
		12]
	},
	{
		"name":"Cylinder.1",
		"mesh":6,
		"translation":[12.721603393554688,
		-0.07525848597288132,
		1.9473791122436524],
		"rotation":[0.0,
		0.0,
		0.7071067690849304,
		-0.7071067690849304],
		"scale":[1.0,
		1.0,
		1.0]
	},
	{
		"name":"Cube.1",
		"mesh":7,
		"translation":[12.657262802124024,
		-0.07122152298688889,
		-0.07339664548635483],
		"rotation":[0.0,
		0.0,
		0.0,
		-1.0],
		"scale":[1.0,
		1.0,
		1.0]
	},
	{
		"name":"Cylinder",
		"mesh":8,
		"translation":[12.671355247497559,
		-0.11624795943498612,
		1.4899877309799195],
		"rotation":[0.0,
		0.0,
		0.7071067690849304,
		-0.7071067690849304],
		"scale":[1.0,
		1.0,
		1.0]
	}],
	"meshes":[{
		"primitives":[{
			"attributes":{
				"POSITION":1,
				"NORMAL":2,
				"TEXCOORD_0":3
			},
			"indices":0,
			"material":0
		}],
		"name":"canvas"
	},
	{
		"primitives":[{
			"attributes":{
				"POSITION":5,
				"NORMAL":6,
				"TEXCOORD_0":7
			},
			"indices":4,
			"material":0
		}],
		"name":"Cube.3"
	},
	{
		"primitives":[{
			"attributes":{
				"POSITION":9,
				"NORMAL":10,
				"TEXCOORD_0":11
			},
			"indices":8,
			"material":0
		}],
		"name":"Cube.4"
	},
	{
		"primitives":[{
			"attributes":{
				"POSITION":13,
				"NORMAL":14,
				"TEXCOORD_0":15
			},
			"indices":12,
			"material":0
		}],
		"name":"Cube.2"
	},
	{
		"primitives":[{
			"attributes":{
				"POSITION":17,
				"NORMAL":18,
				"TEXCOORD_0":19
			},
			"indices":16,
			"material":0
		}],
		"name":"Cube.1"
	},
	{
		"primitives":[{
			"attributes":{
				"POSITION":21,
				"NORMAL":22,
				"TEXCOORD_0":23
			},
			"indices":20,
			"material":0
		}],
		"name":"Cylinder"
	},
	{
		"primitives":[{
			"attributes":{
				"POSITION":25,
				"NORMAL":26,
				"TEXCOORD_0":27
			},
			"indices":24,
			"material":0
		}],
		"name":"Cylinder.1"
	},
	{
		"primitives":[{
			"attributes":{
				"POSITION":29,
				"NORMAL":30,
				"TEXCOORD_0":31
			},
			"indices":28,
			"material":0
		}],
		"name":"Cube.1"
	},
	{
		"primitives":[{
			"attributes":{
				"POSITION":33,
				"NORMAL":34,
				"TEXCOORD_0":35
			},
			"indices":32,
			"material":0
		}],
		"name":"Cylinder"
	}],
	"accessors":[{
		"bufferView":0,
		"type":"SCALAR",
		"componentType":5123,
		"count":564,
		"byteOffset":0,
		"min":[0],
		"max":[143]
	},
	{
		"bufferView":1,
		"type":"VEC3",
		"componentType":5126,
		"count":144,
		"byteOffset":0,
		"min":[-1.9664117097854615,
		-1.9862637519836426,
		-0.1832696795463562],
		"max":[1.9664117097854615,
		1.9862637519836426,
		0.1832696795463562]
	},
	{
		"bufferView":1,
		"type":"VEC3",
		"componentType":5126,
		"count":144,
		"byteOffset":12,
		"min":[-0.9880422353744507,
		-0.9896488189697266,
		-0.9936225414276123],
		"max":[0.9883663058280945,
		0.9901220798492432,
		0.9910904169082642]
	},
	{
		"bufferView":1,
		"type":"VEC2",
		"componentType":5126,
		"count":144,
		"byteOffset":24,
		"min":[0.0006620057974942029,
		0.0006620057392865419],
		"max":[0.9980506896972656,
		0.9973491430282593]
	},
	{
		"bufferView":2,
		"type":"SCALAR",
		"componentType":5123,
		"count":36,
		"byteOffset":0,
		"min":[0],
		"max":[23]
	},
	{
		"bufferView":3,
		"type":"VEC3",
		"componentType":5126,
		"count":24,
		"byteOffset":0,
		"min":[-0.24279217422008515,
		-0.05051948502659798,
		-0.06266453117132187],
		"max":[0.24279217422008515,
		0.05051948502659798,
		0.06266453117132187]
	},
	{
		"bufferView":3,
		"type":"VEC3",
		"componentType":5126,
		"count":24,
		"byteOffset":12,
		"min":[-1.0,
		-1.0,
		-1.0],
		"max":[1.0,
		1.0,
		1.0]
	},
	{
		"bufferView":3,
		"type":"VEC2",
		"componentType":5126,
		"count":24,
		"byteOffset":24,
		"min":[0.2727411389350891,
		0.6922616958618164],
		"max":[0.36623701453208926,
		0.7538164854049683]
	},
	{
		"bufferView":4,
		"type":"SCALAR",
		"componentType":5123,
		"count":312,
		"byteOffset":0,
		"min":[0],
		"max":[106]
	},
	{
		"bufferView":5,
		"type":"VEC3",
		"componentType":5126,
		"count":107,
		"byteOffset":0,
		"min":[-1.7785264253616334,
		-0.19899195432662965,
		-0.10889489203691483],
		"max":[1.7785264253616334,
		0.20252320170402528,
		0.19816282391548158]
	},
	{
		"bufferView":5,
		"type":"VEC3",
		"componentType":5126,
		"count":107,
		"byteOffset":12,
		"min":[-0.9997143149375916,
		-0.9967589378356934,
		-0.9990045428276062],
		"max":[0.9997143149375916,
		0.9990095496177673,
		0.997619092464447]
	},
	{
		"bufferView":5,
		"type":"VEC2",
		"componentType":5126,
		"count":107,
		"byteOffset":24,
		"min":[0.35738319158554079,
		0.0006620057392865419],
		"max":[0.8019357919692993,
		0.8088259696960449]
	},
	{
		"bufferView":6,
		"type":"SCALAR",
		"componentType":5123,
		"count":216,
		"byteOffset":0,
		"min":[0],
		"max":[76]
	},
	{
		"bufferView":7,
		"type":"VEC3",
		"componentType":5126,
		"count":77,
		"byteOffset":0,
		"min":[-0.3891833424568176,
		-0.2259824424982071,
		-3.1829991340637209],
		"max":[1.090439796447754,
		0.2546146512031555,
		2.294721841812134]
	},
	{
		"bufferView":7,
		"type":"VEC3",
		"componentType":5126,
		"count":77,
		"byteOffset":12,
		"min":[-0.997104287147522,
		-0.999020516872406,
		-0.9990045428276062],
		"max":[0.9661749005317688,
		0.9962691068649292,
		0.9990453124046326]
	},
	{
		"bufferView":7,
		"type":"VEC2",
		"componentType":5126,
		"count":77,
		"byteOffset":24,
		"min":[0.3568525016307831,
		0.0006620057392865419],
		"max":[0.9311488270759583,
		0.8088259696960449]
	},
	{
		"bufferView":8,
		"type":"SCALAR",
		"componentType":5123,
		"count":216,
		"byteOffset":0,
		"min":[0],
		"max":[76]
	},
	{
		"bufferView":9,
		"type":"VEC3",
		"componentType":5126,
		"count":77,
		"byteOffset":0,
		"min":[-0.36386820673942568,
		-0.2875652015209198,
		-3.171006202697754],
		"max":[1.044208288192749,
		0.23968446254730225,
		2.2897348403930666]
	},
	{
		"bufferView":9,
		"type":"VEC3",
		"componentType":5126,
		"count":77,
		"byteOffset":12,
		"min":[-0.997107744216919,
		-0.996889591217041,
		-0.9990047812461853],
		"max":[0.9694585204124451,
		0.9986685514450073,
		0.9989024996757507]
	},
	{
		"bufferView":9,
		"type":"VEC2",
		"componentType":5126,
		"count":77,
		"byteOffset":24,
		"min":[0.0006620057974942029,
		0.0006620057392865419],
		"max":[0.6615171432495117,
		0.9610642194747925]
	},
	{
		"bufferView":10,
		"type":"SCALAR",
		"componentType":5123,
		"count":444,
		"byteOffset":0,
		"min":[0],
		"max":[151]
	},
	{
		"bufferView":11,
		"type":"VEC3",
		"componentType":5126,
		"count":152,
		"byteOffset":0,
		"min":[-0.11939990520477295,
		-0.7599864602088928,
		-0.11972363293170929],
		"max":[0.11983159929513931,
		0.7599864602088928,
		0.11972363293170929]
	},
	{
		"bufferView":11,
		"type":"VEC3",
		"componentType":5126,
		"count":152,
		"byteOffset":12,
		"min":[-0.9984025955200195,
		-1.0,
		-0.9999011158943176],
		"max":[0.9995982646942139,
		1.0,
		0.9999011158943176]
	},
	{
		"bufferView":11,
		"type":"VEC2",
		"componentType":5126,
		"count":152,
		"byteOffset":24,
		"min":[0.0006620057974942029,
		0.6922616958618164],
		"max":[0.26876911520957949,
		0.8078501224517822]
	},
	{
		"bufferView":12,
		"type":"SCALAR",
		"componentType":5123,
		"count":216,
		"byteOffset":0,
		"min":[0],
		"max":[73]
	},
	{
		"bufferView":13,
		"type":"VEC3",
		"componentType":5126,
		"count":74,
		"byteOffset":0,
		"min":[-0.02720978856086731,
		-0.2710138261318207,
		-0.17145803570747376],
		"max":[0.1716126650571823,
		0.12259739637374878,
		0.12190639972686768]
	},
	{
		"bufferView":13,
		"type":"VEC3",
		"componentType":5126,
		"count":74,
		"byteOffset":12,
		"min":[-1.0,
		0.0,
		-0.6919474601745606],
		"max":[0.21066223084926606,
		0.0,
		0.9990991353988648]
	},
	{
		"bufferView":13,
		"type":"VEC2",
		"componentType":5126,
		"count":74,
		"byteOffset":24,
		"min":[0.678689181804657,
		0.6982982158660889],
		"max":[0.7315707802772522,
		0.756456732749939]
	},
	{
		"bufferView":14,
		"type":"SCALAR",
		"componentType":5123,
		"count":675,
		"byteOffset":0,
		"min":[0],
		"max":[241]
	},
	{
		"bufferView":15,
		"type":"VEC3",
		"componentType":5126,
		"count":242,
		"byteOffset":0,
		"min":[-0.2069162130355835,
		-0.2143631875514984,
		-3.1952641010284426],
		"max":[0.21403862535953523,
		0.23222661018371583,
		2.3073339462280275]
	},
	{
		"bufferView":15,
		"type":"VEC3",
		"componentType":5126,
		"count":242,
		"byteOffset":12,
		"min":[-0.9999823570251465,
		-0.9951192736625671,
		-0.6924784183502197],
		"max":[0.999715268611908,
		0.9951192736625671,
		0.45128893852233889]
	},
	{
		"bufferView":15,
		"type":"VEC2",
		"componentType":5126,
		"count":242,
		"byteOffset":24,
		"min":[0.0006620057974942029,
		0.0006620057392865419],
		"max":[0.9604923129081726,
		0.9033101797103882]
	},
	{
		"bufferView":16,
		"type":"SCALAR",
		"componentType":5123,
		"count":255,
		"byteOffset":0,
		"min":[0],
		"max":[87]
	},
	{
		"bufferView":17,
		"type":"VEC3",
		"componentType":5126,
		"count":88,
		"byteOffset":0,
		"min":[-0.11939990520477295,
		-0.22008520364761353,
		-0.11972363293170929],
		"max":[0.11983159929513931,
		0.17522843182086945,
		0.11972363293170929]
	},
	{
		"bufferView":17,
		"type":"VEC3",
		"componentType":5126,
		"count":88,
		"byteOffset":12,
		"min":[-0.9995982646942139,
		0.0,
		-0.9999011158943176],
		"max":[0.9984025955200195,
		0.0,
		0.9999011158943176]
	},
	{
		"bufferView":17,
		"type":"VEC2",
		"componentType":5126,
		"count":88,
		"byteOffset":24,
		"min":[0.6223962903022766,
		0.6982982158660889],
		"max":[0.674717128276825,
		0.7994130849838257]
	}],
	"bufferViews":[{
		"buffer":0,
		"byteOffset":0,
		"byteLength":1128,
		"target":34963
	},
	{
		"buffer":0,
		"byteOffset":1128,
		"byteLength":4608,
		"target":34962,
		"byteStride":32
	},
	{
		"buffer":1,
		"byteOffset":0,
		"byteLength":72,
		"target":34963
	},
	{
		"buffer":1,
		"byteOffset":72,
		"byteLength":768,
		"target":34962,
		"byteStride":32
	},
	{
		"buffer":2,
		"byteOffset":0,
		"byteLength":624,
		"target":34963
	},
	{
		"buffer":2,
		"byteOffset":624,
		"byteLength":3424,
		"target":34962,
		"byteStride":32
	},
	{
		"buffer":3,
		"byteOffset":0,
		"byteLength":432,
		"target":34963
	},
	{
		"buffer":3,
		"byteOffset":432,
		"byteLength":2464,
		"target":34962,
		"byteStride":32
	},
	{
		"buffer":4,
		"byteOffset":0,
		"byteLength":432,
		"target":34963
	},
	{
		"buffer":4,
		"byteOffset":432,
		"byteLength":2464,
		"target":34962,
		"byteStride":32
	},
	{
		"buffer":5,
		"byteOffset":0,
		"byteLength":888,
		"target":34963
	},
	{
		"buffer":5,
		"byteOffset":888,
		"byteLength":4864,
		"target":34962,
		"byteStride":32
	},
	{
		"buffer":6,
		"byteOffset":0,
		"byteLength":432,
		"target":34963
	},
	{
		"buffer":6,
		"byteOffset":432,
		"byteLength":2368,
		"target":34962,
		"byteStride":32
	},
	{
		"buffer":7,
		"byteOffset":0,
		"byteLength":1350,
		"target":34963
	},
	{
		"buffer":7,
		"byteOffset":1352,
		"byteLength":7744,
		"target":34962,
		"byteStride":32
	},
	{
		"buffer":8,
		"byteOffset":0,
		"byteLength":510,
		"target":34963
	},
	{
		"buffer":8,
		"byteOffset":512,
		"byteLength":2816,
		"target":34962,
		"byteStride":32
	}],
	"buffers":[{
		"uri":"data:application/octet-stream;base64,",
		"byteLength":5736
	},
	{
		"uri":"data:application/octet-stream;base64,",
		"byteLength":840
	},
	{
		"uri":"data:application/octet-stream;base64,",
		"byteLength":4048
	},
	{
		"uri":"data:application/octet-stream;base64,",
		"byteLength":2896
	},
	{
		"uri":"data:application/octet-stream;base64,",
		"byteLength":2896
	},
	{
		"uri":"data:application/octet-stream;base64,",
		"byteLength":5752
	},
	{
		"uri":"data:application/octet-stream;base64,",
		"byteLength":2800
	},
	{
		"uri":"data:application/octet-stream;base64,",
		"byteLength":9096
	},
	{
		"uri":"data:application/octet-stream;base64,",
		"byteLength":3328
	}],
	"images":[{
		"uri":"data:image/png;base64,"
	}],
	"samplers":[{
		"magFilter":9729,
		"minFilter":9729,
		"wrapS":10497,
		"wrapT":10497
	}],
	"textures":[{
		"sampler":0,
		"source":0
	}],
	"materials":[{
		"pbrMetallicRoughness":{
			"baseColorFactor":[1.0,
			1.0,
			1.0,
			1.0],
			"metallicFactor":0.0,
			"roughnessFactor":0.5
		},
		"emissiveTexture":{
			"index":0
		},
		"emissiveFactor":[1.0,
		1.0,
		1.0],
		"alphaMode":"OPAQUE",
		"doubleSided":true,
		"name":"Cube"
	}]
}