{
	"asset":{
		"version":"2.0",
		"generator":"Created using the official Cinema 4D glTF Exporter 1.000x284978"
	},
	"textures":[{
		"sampler":0,
		"source":0
	},
	{
		"sampler":1,
		"source":1
	},
	{
		"sampler":2,
		"source":2
	},
	{
		"sampler":3,
		"source":3
	},
	{
		"sampler":4,
		"source":4
	},
	{
		"sampler":5,
		"source":5
	},
	{
		"sampler":6,
		"source":6
	},
	{
		"sampler":7,
		"source":7
	},
	{
		"sampler":8,
		"source":8
	}],
	"scenes":[{
		"nodes":[0,
		1]
	}],
	"nodes":[{
		"name":"canvas.1",
		"translation":[248.2232208251953,
		319.4029235839844,
		55.29092788696289],
		"rotation":[-0.17298738658428193,
		-0.0858316496014595,
		0.015134436078369618,
		-0.981060266494751],
		"scale":[1.0,
		1.0,
		1.0],
		"mesh":0
	},
	{
		"name":"easel.1",
		"translation":[40.073204040527347,
		310.29986572265627,
		117.38961791992188],
		"rotation":[0.5714741945266724,
		-0.07006920874118805,
		-0.04906298965215683,
		-0.8161497116088867],
		"scale":[1.0,
		1.0,
		1.0],
		"children":[2,
		12]
	},
	{
		"name":"Null",
		"translation":[-41.934295654296878,
		-7.506910800933838,
		-1.7214971780776978],
		"rotation":[0.0,
		-3.469446951953614e-18,
		0.0,
		-1.0],
		"scale":[1.0,
		1.0,
		1.0],
		"children":[3,
		4,
		5,
		10,
		11]
	},
	{
		"name":"Cube.4",
		"translation":[250.33692932128907,
		26.01069450378418,
		-197.00289916992188],
		"rotation":[0.0,
		-6.938893903907229e-18,
		0.0,
		-1.0],
		"scale":[1.0,
		1.0,
		1.0],
		"mesh":1
	},
	{
		"name":"Cube.2",
		"translation":[196.56826782226563,
		10.069851875305176,
		3.5772225856781008],
		"rotation":[6.938893903907229e-18,
		-4.248847289921198e-34,
		1.0,
		-6.123234262925839e-17],
		"scale":[1.0,
		1.0,
		1.0],
		"mesh":2
	},
	{
		"name":"Boole.1",
		"translation":[-1010.6635131835938,
		-59.43682098388672,
		29.801773071289064],
		"rotation":[0.29703256487846377,
		0.0,
		0.0,
		-0.9548673629760742],
		"scale":[1.0,
		1.0,
		1.0],
		"children":[6,
		9]
	},
	{
		"name":"Boole",
		"children":[7,
		8]
	},
	{
		"name":"Cube.1",
		"translation":[1265.726318359375,
		-7.122152805328369,
		-7.339664459228516],
		"rotation":[0.0,
		0.0,
		0.0,
		-1.0],
		"scale":[1.0,
		1.0,
		1.0],
		"mesh":3
	},
	{
		"name":"Cylinder",
		"translation":[1267.135498046875,
		-11.624795913696289,
		148.99876403808595],
		"rotation":[0.0,
		0.0,
		0.7071067690849304,
		-0.7071067690849304],
		"scale":[1.0,
		1.0,
		1.0],
		"mesh":4
	},
	{
		"name":"Cylinder.1",
		"translation":[1272.1602783203126,
		-7.525848388671875,
		194.7379150390625],
		"rotation":[0.0,
		0.0,
		0.7071067690849304,
		-0.7071067690849304],
		"scale":[1.0,
		1.0,
		1.0],
		"mesh":5
	},
	{
		"name":"Cube.1",
		"translation":[309.78546142578127,
		7.825376510620117,
		4.3941450119018559],
		"rotation":[0.0,
		-6.938893903907229e-18,
		0.0,
		-1.0],
		"scale":[1.0,
		1.0,
		1.0],
		"mesh":6
	},
	{
		"name":"Cylinder",
		"translation":[253.97286987304688,
		15.530898094177246,
		159.22975158691407],
		"rotation":[4.90653884941496e-18,
		-4.90653884941496e-18,
		0.7071067690849304,
		-0.7071067690849304],
		"scale":[1.0,
		1.0,
		1.0],
		"mesh":7
	},
	{
		"name":"Cube.3",
		"translation":[211.64697265625,
		9.511119842529297,
		173.0045623779297],
		"rotation":[0.0,
		-1.734723475976807e-17,
		0.0,
		-1.0],
		"scale":[1.0,
		1.0,
		1.0],
		"mesh":8
	}],
	"samplers":[{
		"magFilter":9729,
		"minFilter":9729,
		"wrapS":10497,
		"wrapT":10497
	},
	{
		"magFilter":9729,
		"minFilter":9729,
		"wrapS":10497,
		"wrapT":10497
	},
	{
		"magFilter":9729,
		"minFilter":9729,
		"wrapS":10497,
		"wrapT":10497
	},
	{
		"magFilter":9729,
		"minFilter":9729,
		"wrapS":10497,
		"wrapT":10497
	},
	{
		"magFilter":9729,
		"minFilter":9729,
		"wrapS":10497,
		"wrapT":10497
	},
	{
		"magFilter":9729,
		"minFilter":9729,
		"wrapS":10497,
		"wrapT":10497
	},
	{
		"magFilter":9729,
		"minFilter":9729,
		"wrapS":10497,
		"wrapT":10497
	},
	{
		"magFilter":9729,
		"minFilter":9729,
		"wrapS":10497,
		"wrapT":10497
	},
	{
		"magFilter":9729,
		"minFilter":9729,
		"wrapS":10497,
		"wrapT":10497
	}],
	"meshes":[{
		"name":"canvas.1",
		"primitives":[{
			"attributes":{
				"POSITION":1,
				"NORMAL":2,
				"TEXCOORD_0":3
			},
			"indices":0,
			"material":0
		}]
	},
	{
		"name":"Cube.4",
		"primitives":[{
			"attributes":{
				"POSITION":5,
				"NORMAL":6,
				"TEXCOORD_0":7
			},
			"indices":4,
			"material":1
		}]
	},
	{
		"name":"Cube.2",
		"primitives":[{
			"attributes":{
				"POSITION":9,
				"NORMAL":10,
				"TEXCOORD_0":11
			},
			"indices":8,
			"material":2
		}]
	},
	{
		"name":"Cube.1",
		"primitives":[{
			"attributes":{
				"POSITION":13,
				"NORMAL":14,
				"TEXCOORD_0":15
			},
			"indices":12,
			"material":3
		}]
	},
	{
		"name":"Cylinder",
		"primitives":[{
			"attributes":{
				"POSITION":17,
				"NORMAL":18,
				"TEXCOORD_0":19
			},
			"indices":16,
			"material":4
		}]
	},
	{
		"name":"Cylinder.1",
		"primitives":[{
			"attributes":{
				"POSITION":21,
				"NORMAL":22,
				"TEXCOORD_0":23
			},
			"indices":20,
			"material":5
		}]
	},
	{
		"name":"Cube.1",
		"primitives":[{
			"attributes":{
				"POSITION":25,
				"NORMAL":26,
				"TEXCOORD_0":27
			},
			"indices":24,
			"material":6
		}]
	},
	{
		"name":"Cylinder",
		"primitives":[{
			"attributes":{
				"POSITION":29,
				"NORMAL":30,
				"TEXCOORD_0":31
			},
			"indices":28,
			"material":7
		}]
	},
	{
		"name":"Cube.3",
		"primitives":[{
			"attributes":{
				"POSITION":33,
				"NORMAL":34,
				"TEXCOORD_0":35
			},
			"indices":32,
			"material":8
		}]
	}],
	"accessors":[{
		"bufferView":0,
		"type":"SCALAR",
		"componentType":5123,
		"count":564,
		"byteOffset":0,
		"min":[0],
		"max":[126]
	},
	{
		"bufferView":1,
		"type":"VEC3",
		"componentType":5126,
		"count":127,
		"byteOffset":0,
		"min":[-196.64117431640626,
		-198.62637329101563,
		-18.326969146728517],
		"max":[196.64117431640626,
		198.62637329101563,
		18.326969146728517]
	},
	{
		"bufferView":1,
		"type":"VEC3",
		"componentType":5126,
		"count":127,
		"byteOffset":12,
		"min":[-0.988038957118988,
		-0.9896455407142639,
		-0.9936215877532959],
		"max":[0.9883618950843811,
		0.990118682384491,
		0.9910870790481567]
	},
	{
		"bufferView":1,
		"type":"VEC2",
		"componentType":5126,
		"count":127,
		"byteOffset":24,
		"min":[0.0013021653285250068,
		0.001302165212109685],
		"max":[0.5512077808380127,
		0.996108889579773]
	},
	{
		"bufferView":2,
		"type":"SCALAR",
		"componentType":5123,
		"count":324,
		"byteOffset":0,
		"min":[0],
		"max":[121]
	},
	{
		"bufferView":3,
		"type":"VEC3",
		"componentType":5126,
		"count":122,
		"byteOffset":0,
		"min":[-177.85264587402345,
		-19.89919662475586,
		-10.88948917388916],
		"max":[177.85264587402345,
		20.252321243286134,
		19.816282272338868]
	},
	{
		"bufferView":3,
		"type":"VEC3",
		"componentType":5126,
		"count":122,
		"byteOffset":12,
		"min":[-0.9997140169143677,
		-0.9967582821846008,
		-0.9990040063858032],
		"max":[0.9997140169143677,
		0.9990086555480957,
		0.9908710718154907]
	},
	{
		"bufferView":3,
		"type":"VEC2",
		"componentType":5126,
		"count":122,
		"byteOffset":24,
		"min":[0.0013021031627431512,
		0.0013021030463278294],
		"max":[0.9974110722541809,
		0.6772921085357666]
	},
	{
		"bufferView":4,
		"type":"SCALAR",
		"componentType":5123,
		"count":228,
		"byteOffset":0,
		"min":[0],
		"max":[92]
	},
	{
		"bufferView":5,
		"type":"VEC3",
		"componentType":5126,
		"count":93,
		"byteOffset":0,
		"min":[-38.9183349609375,
		-22.598243713378908,
		-318.2999267578125],
		"max":[109.04397583007813,
		25.46146583557129,
		229.47219848632813]
	},
	{
		"bufferView":5,
		"type":"VEC3",
		"componentType":5126,
		"count":93,
		"byteOffset":12,
		"min":[-0.9971027374267578,
		-0.9982727766036987,
		-0.9990042448043823],
		"max":[0.9661673307418823,
		0.9955710172653198,
		0.9990443587303162]
	},
	{
		"bufferView":5,
		"type":"VEC2",
		"componentType":5126,
		"count":93,
		"byteOffset":24,
		"min":[0.0013028455432504416,
		0.0013028455432504416],
		"max":[0.9961089491844177,
		0.6757110357284546]
	},
	{
		"bufferView":6,
		"type":"SCALAR",
		"componentType":5123,
		"count":678,
		"byteOffset":0,
		"min":[0],
		"max":[237]
	},
	{
		"bufferView":7,
		"type":"VEC3",
		"componentType":5126,
		"count":238,
		"byteOffset":0,
		"min":[-20.691621780395509,
		-21.43631935119629,
		-319.52642822265627],
		"max":[21.40386390686035,
		23.2226619720459,
		230.7333984375]
	},
	{
		"bufferView":7,
		"type":"VEC3",
		"componentType":5126,
		"count":238,
		"byteOffset":12,
		"min":[-0.9999821782112122,
		-0.9951169490814209,
		-0.6924691796302795],
		"max":[0.9997146725654602,
		0.9951170086860657,
		0.4512869119644165]
	},
	{
		"bufferView":7,
		"type":"VEC2",
		"componentType":5126,
		"count":238,
		"byteOffset":24,
		"min":[0.0013021031627431512,
		0.0013021030463278294],
		"max":[0.9974110722541809,
		0.4283296465873718]
	},
	{
		"bufferView":8,
		"type":"SCALAR",
		"componentType":5123,
		"count":258,
		"byteOffset":0,
		"min":[0],
		"max":[87]
	},
	{
		"bufferView":9,
		"type":"VEC3",
		"componentType":5126,
		"count":88,
		"byteOffset":0,
		"min":[-11.939990997314454,
		-22.008520126342775,
		-11.972363471984864],
		"max":[11.983160018920899,
		17.522842407226564,
		11.972363471984864]
	},
	{
		"bufferView":9,
		"type":"VEC3",
		"componentType":5126,
		"count":88,
		"byteOffset":12,
		"min":[-0.9995977878570557,
		-8.182092301467492e-7,
		-0.9999006986618042],
		"max":[0.9984018206596375,
		1.0756528112665365e-8,
		0.9999006986618042]
	},
	{
		"bufferView":9,
		"type":"VEC2",
		"componentType":5126,
		"count":88,
		"byteOffset":24,
		"min":[0.0013021031627431512,
		0.0013021030463278294],
		"max":[0.9974110722541809,
		0.7203681468963623]
	},
	{
		"bufferView":10,
		"type":"SCALAR",
		"componentType":5123,
		"count":216,
		"byteOffset":0,
		"min":[0],
		"max":[73]
	},
	{
		"bufferView":11,
		"type":"VEC3",
		"componentType":5126,
		"count":74,
		"byteOffset":0,
		"min":[-2.7209789752960207,
		-27.101381301879884,
		-17.145803451538087],
		"max":[17.161266326904298,
		12.259739875793457,
		12.19063949584961]
	},
	{
		"bufferView":11,
		"type":"VEC3",
		"componentType":5126,
		"count":74,
		"byteOffset":12,
		"min":[-1.0,
		-0.000030504519600071945,
		-0.6919457912445068],
		"max":[0.21067997813224793,
		2.48250646706083e-8,
		0.9990990161895752]
	},
	{
		"bufferView":11,
		"type":"VEC2",
		"componentType":5126,
		"count":74,
		"byteOffset":24,
		"min":[0.0013021030463278294,
		0.0013021030463278294],
		"max":[0.9974110126495361,
		0.9695025682449341]
	},
	{
		"bufferView":12,
		"type":"SCALAR",
		"componentType":5123,
		"count":228,
		"byteOffset":0,
		"min":[0],
		"max":[88]
	},
	{
		"bufferView":13,
		"type":"VEC3",
		"componentType":5126,
		"count":89,
		"byteOffset":0,
		"min":[-36.38682174682617,
		-28.756521224975587,
		-317.1006164550781],
		"max":[104.42082977294922,
		23.968446731567384,
		228.97348022460938]
	},
	{
		"bufferView":13,
		"type":"VEC3",
		"componentType":5126,
		"count":89,
		"byteOffset":12,
		"min":[-0.997106671333313,
		-0.9968889951705933,
		-0.9990041851997376],
		"max":[0.9694576263427734,
		0.9936718344688416,
		0.9989015460014343]
	},
	{
		"bufferView":13,
		"type":"VEC2",
		"componentType":5126,
		"count":89,
		"byteOffset":24,
		"min":[0.0013028234243392945,
		0.0013028234243392945],
		"max":[0.9961089491844177,
		0.5364353656768799]
	},
	{
		"bufferView":14,
		"type":"SCALAR",
		"componentType":5123,
		"count":444,
		"byteOffset":0,
		"min":[0],
		"max":[151]
	},
	{
		"bufferView":15,
		"type":"VEC3",
		"componentType":5126,
		"count":152,
		"byteOffset":0,
		"min":[-11.939990997314454,
		-75.99864959716797,
		-11.972363471984864],
		"max":[11.983160018920899,
		75.99864959716797,
		11.972363471984864]
	},
	{
		"bufferView":15,
		"type":"VEC3",
		"componentType":5126,
		"count":152,
		"byteOffset":12,
		"min":[-0.9984018206596375,
		-1.0,
		-0.9999006986618042],
		"max":[0.9995977282524109,
		1.0,
		0.9999006986618042]
	},
	{
		"bufferView":15,
		"type":"VEC2",
		"componentType":5126,
		"count":152,
		"byteOffset":24,
		"min":[0.0013021031627431512,
		0.0013021030463278294],
		"max":[0.9974110722541809,
		0.7096928358078003]
	},
	{
		"bufferView":16,
		"type":"SCALAR",
		"componentType":5123,
		"count":36,
		"byteOffset":0,
		"min":[0],
		"max":[23]
	},
	{
		"bufferView":17,
		"type":"VEC3",
		"componentType":5126,
		"count":24,
		"byteOffset":0,
		"min":[-24.279216766357423,
		-5.051948547363281,
		-6.266453266143799],
		"max":[24.279216766357423,
		5.051948547363281,
		6.266453266143799]
	},
	{
		"bufferView":17,
		"type":"VEC3",
		"componentType":5126,
		"count":24,
		"byteOffset":12,
		"min":[-1.0,
		-1.0,
		-1.0],
		"max":[1.0,
		1.0,
		1.0]
	},
	{
		"bufferView":17,
		"type":"VEC2",
		"componentType":5126,
		"count":24,
		"byteOffset":24,
		"min":[0.0013021031627431512,
		0.0013021030463278294],
		"max":[0.9974110722541809,
		0.8538285493850708]
	}],
	"bufferViews":[{
		"buffer":0,
		"byteOffset":0,
		"byteLength":1128,
		"target":34963
	},
	{
		"buffer":0,
		"byteOffset":1128,
		"byteLength":4064,
		"target":34962,
		"byteStride":32
	},
	{
		"buffer":1,
		"byteOffset":0,
		"byteLength":648,
		"target":34963
	},
	{
		"buffer":1,
		"byteOffset":648,
		"byteLength":3904,
		"target":34962,
		"byteStride":32
	},
	{
		"buffer":2,
		"byteOffset":0,
		"byteLength":456,
		"target":34963
	},
	{
		"buffer":2,
		"byteOffset":456,
		"byteLength":2976,
		"target":34962,
		"byteStride":32
	},
	{
		"buffer":3,
		"byteOffset":0,
		"byteLength":1356,
		"target":34963
	},
	{
		"buffer":3,
		"byteOffset":1356,
		"byteLength":7616,
		"target":34962,
		"byteStride":32
	},
	{
		"buffer":4,
		"byteOffset":0,
		"byteLength":516,
		"target":34963
	},
	{
		"buffer":4,
		"byteOffset":516,
		"byteLength":2816,
		"target":34962,
		"byteStride":32
	},
	{
		"buffer":5,
		"byteOffset":0,
		"byteLength":432,
		"target":34963
	},
	{
		"buffer":5,
		"byteOffset":432,
		"byteLength":2368,
		"target":34962,
		"byteStride":32
	},
	{
		"buffer":6,
		"byteOffset":0,
		"byteLength":456,
		"target":34963
	},
	{
		"buffer":6,
		"byteOffset":456,
		"byteLength":2848,
		"target":34962,
		"byteStride":32
	},
	{
		"buffer":7,
		"byteOffset":0,
		"byteLength":888,
		"target":34963
	},
	{
		"buffer":7,
		"byteOffset":888,
		"byteLength":4864,
		"target":34962,
		"byteStride":32
	},
	{
		"buffer":8,
		"byteOffset":0,
		"byteLength":72,
		"target":34963
	},
	{
		"buffer":8,
		"byteOffset":72,
		"byteLength":768,
		"target":34962,
		"byteStride":32
	}],
	"buffers":[{
		"uri":"data:application/octet-stream;base64,",
		"byteLength":5192
	},
	{
		"uri":"data:application/octet-stream;base64,",
		"byteLength":4552
	},
	{
		"uri":"data:application/octet-stream;base64,",
		"byteLength":3432
	},
	{
		"uri":"data:application/octet-stream;base64,",
		"byteLength":8972
	},
	{
		"uri":"data:application/octet-stream;base64,",
		"byteLength":3332
	},
	{
		"uri":"data:application/octet-stream;base64,",
		"byteLength":2800
	},
	{
		"uri":"data:application/octet-stream;base64,",
		"byteLength":3304
	},
	{
		"uri":"data:application/octet-stream;base64,",
		"byteLength":5752
	},
	{
		"uri":"data:application/octet-stream;base64,",
		"byteLength":840
	}],
	"images":[{
		"uri":"data:image/jpeg;base64,"
	},
	{
		"uri":"data:image/jpeg;base64,"
	},
	{
		"uri":"data:image/jpeg;base64,"
	},
	{
		"uri":"data:image/jpeg;base64,"
	},
	{
		"uri":"data:image/jpeg;base64,"
	},
	{
		"uri":"data:image/jpeg;base64,"
	},
	{
		"uri":"data:image/jpeg;base64,"
	},
	{
		"uri":"data:image/jpeg;base64,"
	},
	{
		"uri":"data:image/jpeg;base64,"
	}],
	"materials":[{
		"pbrMetallicRoughness":{
			"baseColorTexture":{
				"index":0
			},
			"baseColorFactor":[0.8,
			0.8,
			0.8,
			1.0],
			"metallicFactor":0.0,
			"roughnessFactor":0.5
		},
		"name":"canvas",
		"emissiveFactor":[0.0,
		0.0,
		0.0],
		"alphaMode":"OPAQUE",
		"doubleSided":true
	},
	{
		"pbrMetallicRoughness":{
			"baseColorTexture":{
				"index":1
			},
			"baseColorFactor":[0.8,
			0.8,
			0.8,
			1.0],
			"metallicFactor":0.0,
			"roughnessFactor":0.5
		},
		"name":"Cube.4",
		"emissiveFactor":[0.0,
		0.0,
		0.0],
		"alphaMode":"OPAQUE",
		"doubleSided":true
	},
	{
		"pbrMetallicRoughness":{
			"baseColorTexture":{
				"index":2
			},
			"baseColorFactor":[0.8,
			0.8,
			0.8,
			1.0],
			"metallicFactor":0.0,
			"roughnessFactor":0.5
		},
		"name":"Cube.3",
		"emissiveFactor":[0.0,
		0.0,
		0.0],
		"alphaMode":"OPAQUE",
		"doubleSided":true
	},
	{
		"pbrMetallicRoughness":{
			"baseColorTexture":{
				"index":3
			},
			"baseColorFactor":[0.8,
			0.8,
			0.8,
			1.0],
			"metallicFactor":0.0,
			"roughnessFactor":0.5
		},
		"name":"Cube.2",
		"emissiveFactor":[0.0,
		0.0,
		0.0],
		"alphaMode":"OPAQUE",
		"doubleSided":true
	},
	{
		"pbrMetallicRoughness":{
			"baseColorTexture":{
				"index":4
			},
			"baseColorFactor":[0.8,
			0.8,
			0.8,
			1.0],
			"metallicFactor":0.0,
			"roughnessFactor":0.5
		},
		"name":"Cylinder.2",
		"emissiveFactor":[0.0,
		0.0,
		0.0],
		"alphaMode":"OPAQUE",
		"doubleSided":true
	},
	{
		"pbrMetallicRoughness":{
			"baseColorTexture":{
				"index":5
			},
			"baseColorFactor":[0.8,
			0.8,
			0.8,
			1.0],
			"metallicFactor":0.0,
			"roughnessFactor":0.5
		},
		"name":"Cylinder.1",
		"emissiveFactor":[0.0,
		0.0,
		0.0],
		"alphaMode":"OPAQUE",
		"doubleSided":true
	},
	{
		"pbrMetallicRoughness":{
			"baseColorTexture":{
				"index":6
			},
			"baseColorFactor":[0.8,
			0.8,
			0.8,
			1.0],
			"metallicFactor":0.0,
			"roughnessFactor":0.5
		},
		"name":"Cube.1",
		"emissiveFactor":[0.0,
		0.0,
		0.0],
		"alphaMode":"OPAQUE",
		"doubleSided":true
	},
	{
		"pbrMetallicRoughness":{
			"baseColorTexture":{
				"index":7
			},
			"baseColorFactor":[0.8,
			0.8,
			0.8,
			1.0],
			"metallicFactor":0.0,
			"roughnessFactor":0.5
		},
		"name":"Cylinder",
		"emissiveFactor":[0.0,
		0.0,
		0.0],
		"alphaMode":"OPAQUE",
		"doubleSided":true
	},
	{
		"pbrMetallicRoughness":{
			"baseColorTexture":{
				"index":8
			},
			"baseColorFactor":[0.8,
			0.8,
			0.8,
			1.0],
			"metallicFactor":0.0,
			"roughnessFactor":0.5
		},
		"name":"Cube",
		"emissiveFactor":[0.0,
		0.0,
		0.0],
		"alphaMode":"OPAQUE",
		"doubleSided":true
	}]
}