{
	"asset":{
		"generator":"Created using the official Cinema 4D glTF Exporter 1.000x284978",
		"version":"2.0"
	},
	"textures":[{
		"sampler":0,
		"source":0
	}],
	"scenes":[{
		"nodes":[0]
	}],
	"nodes":[{
		"scale":[1.0,
		1.0,
		1.0],
		"name":"Sphere",
		"translation":[0.0,
		10.790427207946778,
		0.0],
		"rotation":[0.0,
		0.0,
		0.0,
		-1.0],
		"mesh":0
	}],
	"samplers":[{
		"magFilter":9729,
		"minFilter":9729,
		"wrapS":10497,
		"wrapT":10497
	}],
	"meshes":[{
		"name":"Sphere",
		"primitives":[{
			"attributes":{
				"POSITION":1,
				"NORMAL":2,
				"TEXCOORD_0":3
			},
			"indices":0,
			"material":0
		}]
	}],
	"accessors":[{
		"bufferView":0,
		"type":"SCALAR",
		"componentType":5123,
		"count":5748,
		"byteOffset":0,
		"min":[0],
		"max":[1563]
	},
	{
		"bufferView":1,
		"type":"VEC3",
		"componentType":5126,
		"count":1564,
		"byteOffset":0,
		"min":[-114.42082977294922,
		-8.729990005493164,
		-81.33332824707031],
		"max":[92.73705291748047,
		23.8561954498291,
		63.527732849121097]
	},
	{
		"bufferView":1,
		"type":"VEC3",
		"componentType":5126,
		"count":1564,
		"byteOffset":12,
		"min":[-0.9999480843544006,
		-1.0,
		-0.9989936351776123],
		"max":[0.9999480843544006,
		1.0,
		0.9989936351776123]
	},
	{
		"bufferView":1,
		"type":"VEC2",
		"componentType":5126,
		"count":1564,
		"byteOffset":24,
		"min":[0.0006540319882333279,
		0.0006540319882333279],
		"max":[0.9895109534263611,
		0.9980506896972656]
	}],
	"bufferViews":[{
		"buffer":0,
		"byteOffset":0,
		"byteLength":11496,
		"target":34963
	},
	{
		"buffer":0,
		"byteOffset":11496,
		"byteLength":50048,
		"target":34962,
		"byteStride":32
	}],
	"buffers":[{
		"uri":"data:application/octet-stream;base64,",
		"byteLength":61544
	}],
	"images":[{
		"uri":"data:image/jpeg;base64,"
	}],
	"materials":[{
		"pbrMetallicRoughness":{
			"baseColorFactor":[1.0,
			1.0,
			1.0,
			1.0],
			"metallicFactor":0.0,
			"roughnessFactor":0.5
		},
		"emissiveTexture":{
			"index":0
		},
		"emissiveFactor":[1.0,
		1.0,
		1.0],
		"alphaMode":"OPAQUE",
		"doubleSided":true,
		"name":"Sphere"
	}]
}