{
	"nodes":[{
		"name":"Cylinder",
		"translation":[0.0,
		123.31695556640625,
		-2.4154443740844728],
		"rotation":[0.0,
		0.0,
		0.0,
		-1.0],
		"scale":[1.0,
		1.0,
		1.0],
		"mesh":0
	}],
	"asset":{
		"generator":"Created using the official Cinema 4D glTF Exporter 1.000x284978",
		"version":"2.0"
	},
	"textures":[{
		"sampler":0,
		"source":0
	}],
	"scenes":[{
		"nodes":[0]
	}],
	"samplers":[{
		"magFilter":9729,
		"minFilter":9729,
		"wrapS":10497,
		"wrapT":10497
	}],
	"meshes":[{
		"name":"Cylinder",
		"primitives":[{
			"attributes":{
				"POSITION":1,
				"NORMAL":2,
				"TEXCOORD_0":3
			},
			"indices":0,
			"material":0
		}]
	}],
	"accessors":[{
		"bufferView":0,
		"type":"SCALAR",
		"componentType":5123,
		"count":1080,
		"byteOffset":0,
		"min":[0],
		"max":[395]
	},
	{
		"bufferView":1,
		"type":"VEC3",
		"componentType":5126,
		"count":396,
		"byteOffset":0,
		"min":[-82.86138916015625,
		-120.54619598388672,
		-82.40746307373047],
		"max":[82.86138916015625,
		166.86715698242188,
		82.40746307373047]
	},
	{
		"bufferView":1,
		"type":"VEC3",
		"componentType":5126,
		"count":396,
		"byteOffset":12,
		"min":[-0.9993867874145508,
		-1.0,
		-0.9975719451904297],
		"max":[0.9993867874145508,
		1.0,
		0.9975719451904297]
	},
	{
		"bufferView":1,
		"type":"VEC2",
		"componentType":5126,
		"count":396,
		"byteOffset":24,
		"min":[0.0006520643946714699,
		0.000652064336463809],
		"max":[0.9047324061393738,
		0.9980506896972656]
	}],
	"bufferViews":[{
		"buffer":0,
		"byteOffset":0,
		"byteLength":2160,
		"target":34963
	},
	{
		"buffer":0,
		"byteOffset":2160,
		"byteLength":12672,
		"target":34962,
		"byteStride":32
	}],
	"buffers":[{
		"uri":"data:application/octet-stream;base64,",
		"byteLength":14832
	}],
	"images":[{
		"uri":"data:image/jpeg;base64,"
	}],
	"materials":[{
		"pbrMetallicRoughness":{
			"baseColorFactor":[1.0,
			1.0,
			1.0,
			1.0],
			"metallicFactor":0.0,
			"roughnessFactor":0.5
		},
		"emissiveTexture":{
			"index":0
		},
		"name":"Cylinder",
		"emissiveFactor":[1.0,
		1.0,
		1.0],
		"alphaMode":"OPAQUE",
		"doubleSided":true
	}]
}