{
	"asset":{
		"generator":"Created using the official Cinema 4D glTF Exporter 1.000x284978",
		"version":"2.0"
	},
	"textures":[{
		"sampler":0,
		"source":0
	}],
	"scenes":[{
		"nodes":[0]
	}],
	"nodes":[{
		"scale":[1.0,
		1.0,
		1.0],
		"name":"Cylinder.1",
		"translation":[-483.6341552734375,
		17.60543441772461,
		242.47476196289063],
		"rotation":[0.0,
		-1.1102230246251566e-16,
		0.0,
		-1.0],
		"mesh":0
	}],
	"samplers":[{
		"magFilter":9729,
		"minFilter":9729,
		"wrapS":10497,
		"wrapT":10497
	}],
	"meshes":[{
		"name":"Cylinder.1",
		"primitives":[{
			"attributes":{
				"POSITION":1,
				"NORMAL":2,
				"TEXCOORD_0":3
			},
			"indices":0,
			"material":0
		}]
	}],
	"accessors":[{
		"bufferView":0,
		"type":"SCALAR",
		"componentType":5123,
		"count":55248,
		"byteOffset":0,
		"min":[0],
		"max":[10295]
	},
	{
		"bufferView":1,
		"type":"VEC3",
		"componentType":5126,
		"count":10296,
		"byteOffset":0,
		"min":[358.2130126953125,
		-15.372001647949219,
		-430.8849182128906],
		"max":[624.8602294921875,
		28.237468719482423,
		-149.2393798828125]
	},
	{
		"bufferView":1,
		"type":"VEC3",
		"componentType":5126,
		"count":10296,
		"byteOffset":12,
		"min":[-0.9999910593032837,
		-1.0,
		-0.999998927116394],
		"max":[0.9996423125267029,
		1.0,
		0.9999821186065674]
	},
	{
		"bufferView":1,
		"type":"VEC2",
		"componentType":5126,
		"count":10296,
		"byteOffset":24,
		"min":[0.0006525235367007554,
		0.0006525234784930944],
		"max":[0.9574010372161865,
		0.9980506896972656]
	}],
	"bufferViews":[{
		"buffer":0,
		"byteOffset":0,
		"byteLength":110496,
		"target":34963
	},
	{
		"buffer":0,
		"byteOffset":110496,
		"byteLength":329472,
		"target":34962,
		"byteStride":32
	}],
	"buffers":[{
		"uri":"data:application/octet-stream;base64,",
		"byteLength":439968
	}],
	"images":[{
		"uri":"data:image/jpeg;base64,"
	}],
	"materials":[{
		"pbrMetallicRoughness":{
			"baseColorFactor":[1.0,
			1.0,
			1.0,
			1.0],
			"metallicFactor":0.0,
			"roughnessFactor":0.5
		},
		"emissiveTexture":{
			"index":0
		},
		"emissiveFactor":[1.0,
		1.0,
		1.0],
		"alphaMode":"OPAQUE",
		"doubleSided":true,
		"name":"Cylinder"
	}]
}