{
	"asset":{
		"generator":"Created using the official Cinema 4D glTF Exporter 1.000x284978",
		"version":"2.0"
	},
	"textures":[{
		"sampler":0,
		"source":0
	}],
	"scenes":[{
		"nodes":[0]
	}],
	"nodes":[{
		"scale":[1.0,
		1.0,
		1.0],
		"name":"Platonic.1",
		"translation":[0.0,
		78.55463409423828,
		0.0],
		"rotation":[0.0,
		0.0,
		0.0,
		-1.0],
		"mesh":0
	}],
	"samplers":[{
		"magFilter":9729,
		"minFilter":9729,
		"wrapS":10497,
		"wrapT":10497
	}],
	"meshes":[{
		"name":"Platonic.1",
		"primitives":[{
			"attributes":{
				"POSITION":1,
				"NORMAL":2,
				"TEXCOORD_0":3
			},
			"indices":0,
			"material":0
		}]
	}],
	"accessors":[{
		"bufferView":0,
		"type":"SCALAR",
		"componentType":5123,
		"count":1068,
		"byteOffset":0,
		"min":[0],
		"max":[219]
	},
	{
		"bufferView":1,
		"type":"VEC3",
		"componentType":5126,
		"count":220,
		"byteOffset":0,
		"min":[-78.96045684814453,
		-78.96045684814453,
		-78.96045684814453],
		"max":[78.96045684814453,
		78.96045684814453,
		78.96045684814453]
	},
	{
		"bufferView":1,
		"type":"VEC3",
		"componentType":5126,
		"count":220,
		"byteOffset":12,
		"min":[-0.989504337310791,
		-0.989504337310791,
		-0.989504337310791],
		"max":[0.989504337310791,
		0.9904179573059082,
		0.989504337310791]
	},
	{
		"bufferView":1,
		"type":"VEC2",
		"componentType":5126,
		"count":220,
		"byteOffset":24,
		"min":[0.0006525201606564224,
		0.0006525201024487615],
		"max":[0.5691344141960144,
		0.9980506896972656]
	}],
	"bufferViews":[{
		"buffer":0,
		"byteOffset":0,
		"byteLength":2136,
		"target":34963
	},
	{
		"buffer":0,
		"byteOffset":2136,
		"byteLength":7040,
		"target":34962,
		"byteStride":32
	}],
	"buffers":[{
		"uri":"data:application/octet-stream;base64,",
		"byteLength":9176
	}],
	"images":[{
		"uri":"data:image/jpeg;base64,"
	}],
	"materials":[{
		"pbrMetallicRoughness":{
			"baseColorFactor":[1.0,
			1.0,
			1.0,
			1.0],
			"metallicFactor":0.0,
			"roughnessFactor":0.5
		},
		"emissiveTexture":{
			"index":0
		},
		"emissiveFactor":[1.0,
		1.0,
		1.0],
		"alphaMode":"OPAQUE",
		"doubleSided":true,
		"name":"Platonic"
	}]
}